name Walk7.mot
datacolumns 19
datarows 22
range 1.91000000 2.01500000
endheader

                time	   L_ground_force_vx	   L_ground_force_vy	   L_ground_force_vz	   L_ground_force_px	   L_ground_force_py	   L_ground_force_pz	   R_ground_force_vx	   R_ground_force_vy	   R_ground_force_vz	   R_ground_force_px	   R_ground_force_py	   R_ground_force_pz	   L_ground_torque_x	   L_ground_torque_y	   L_ground_torque_z	   R_ground_torque_x	   R_ground_torque_y	   R_ground_torque_z	
          1.91000000	          0.05511454	          0.20200611	         -0.00445239	         -0.00031943	          0.00000000	         -0.00005421	         -7.21571976	        518.20690179	        -26.71494689	          0.16455444	          0.00000000	          0.07223596	          0.00000000	         -0.00033428	          0.00000000	          0.00000000	          1.95670440	          0.00000000	
          1.91500000	          0.04123865	          0.16414738	         -0.00325062	         -0.00036456	          0.00000000	         -0.00006708	         -6.60659868	        519.79202627	        -27.08448995	          0.16709717	          0.00000000	          0.07205436	          0.00000000	         -0.00012717	          0.00000000	          0.00000000	          2.01707261	          0.00000000	
          1.92000000	          0.02907883	          0.12688723	         -0.00222286	         -0.00036467	          0.00000000	         -0.00007003	         -6.10420744	        522.18299201	        -27.46765382	          0.16971379	          0.00000000	          0.07187317	          0.00000000	          0.00001570	          0.00000000	          0.00000000	          2.06422806	          0.00000000	
          1.92500000	          0.01898120	          0.09295778	         -0.00138797	         -0.00033590	          0.00000000	         -0.00006639	         -5.70526688	        525.30642245	        -27.85536319	          0.17238783	          0.00000000	          0.07169385	          0.00000000	          0.00010608	          0.00000000	          0.00000000	          2.09865207	          0.00000000	
          1.93000000	          0.01100459	          0.06384764	         -0.00074280	         -0.00029088	          0.00000000	         -0.00005880	         -5.40648401	        529.08159706	        -28.24024951	          0.17510110	          0.00000000	          0.07151667	          0.00000000	          0.00015565	          0.00000000	          0.00000000	          2.12075102	          0.00000000	
          1.93500000	          0.00501902	          0.04013029	         -0.00027032	         -0.00023901	          0.00000000	         -0.00004928	         -5.20159116	        533.42446709	        -28.61705580	          0.17783533	          0.00000000	          0.07134235	          0.00000000	          0.00017513	          0.00000000	          0.00000000	          2.13113907	          0.00000000	
          1.94000000	          0.00078365	          0.02174700	          0.00005405	         -0.00018684	          0.00000000	         -0.00003928	         -5.08033656	        538.24805226	        -28.98243137	          0.18057283	          0.00000000	          0.07117314	          0.00000000	          0.00017377	          0.00000000	          0.00000000	          2.13101597	          0.00000000	
          1.94500000	         -0.00199439	          0.00823822	          0.00025779	         -0.00013861	          0.00000000	         -0.00002976	         -5.02862111	        543.46509195	        -29.33425326	          0.18329754	          0.00000000	          0.07101174	          0.00000000	          0.00015915	          0.00000000	          0.00000000	          2.12214031	          0.00000000	
          1.95000000	         -0.00361817	         -0.00107624	          0.00036805	         -0.00009672	          0.00000000	         -0.00002130	         -5.02717217	        548.99507939	        -29.67121650	          0.18599764	          0.00000000	          0.07086055	          0.00000000	          0.00013719	          0.00000000	          0.00000000	          2.10661671	          0.00000000	
          1.95500000	         -0.00437331	         -0.00696430	          0.00040965	         -0.00006220	          0.00000000	         -0.00001419	         -5.05033817	        554.76805762	        -29.99314711	          0.18866295	          0.00000000	          0.07072028	          0.00000000	          0.00011226	          0.00000000	          0.00000000	          2.08672041	          0.00000000	
          1.96000000	         -0.00451169	         -0.01018941	          0.00040394	         -0.00003515	          0.00000000	         -0.00000851	         -5.06724438	        560.72699088	        -30.30190447	          0.19128404	          0.00000000	          0.07059055	          0.00000000	          0.00008739	          0.00000000	          0.00000000	          2.06470813	          0.00000000	
          1.96500000	         -0.00424361	         -0.01145175	          0.00036832	         -0.00001502	          0.00000000	         -0.00000420	         -5.04448174	        566.83015497	        -30.60228530	          0.19385348	          0.00000000	          0.07047086	          0.00000000	          0.00006453	          0.00000000	          0.00000000	          2.04232516	          0.00000000	
          1.97000000	         -0.00373608	         -0.01135557	          0.00031635	         -0.00000093	          0.00000000	         -0.00000110	         -4.94869486	        573.05257502	        -30.90283102	          0.19636650	          0.00000000	          0.07036070	          0.00000000	          0.00004477	          0.00000000	          0.00000000	          2.02084847	          0.00000000	
          1.97500000	         -0.00311513	         -0.01039581	          0.00025801	          0.00000819	          0.00000000	          0.00000098	         -4.74996575	        579.38670889	        -31.21622738	          0.19882303	          0.00000000	          0.07025906	          0.00000000	          0.00002856	          0.00000000	          0.00000000	          2.00092705	          0.00000000	
          1.98000000	         -0.00247056	         -0.00895814	          0.00020019	          0.00001338	          0.00000000	          0.00000223	         -4.42380694	        585.84171595	        -31.55868640	          0.20122591	          0.00000000	          0.07016332	          0.00000000	          0.00001590	          0.00000000	          0.00000000	          1.98245057	          0.00000000	
          1.98500000	         -0.00186181	         -0.00732772	          0.00014727	          0.00001566	          0.00000000	          0.00000286	         -3.95019847	        592.44388641	        -31.94861020	          0.20357854	          0.00000000	          0.07006973	          0.00000000	          0.00000653	          0.00000000	          0.00000000	          1.96435701	          0.00000000	
          1.99000000	         -0.00132419	         -0.00570262	          0.00010169	          0.00001588	          0.00000000	          0.00000303	         -3.31134919	        599.23572848	        -32.40679268	          0.20588533	          0.00000000	          0.06997466	          0.00000000	         -0.00000000	          0.00000000	          0.00000000	          1.94509725	          0.00000000	
          1.99500000	         -0.00087470	         -0.00420947	          0.00006442	          0.00001476	          0.00000000	          0.00000291	         -2.49034339	        606.27374305	        -32.95508001	          0.20815010	          0.00000000	          0.06987504	          0.00000000	         -0.00000419	          0.00000000	          0.00000000	          1.92290152	          0.00000000	
          2.00000000	         -0.00051727	         -0.00291903	          0.00003543	          0.00001288	          0.00000000	          0.00000260	         -1.47169572	        613.62136645	        -33.61362706	          0.21037642	          0.00000000	          0.06976791	          0.00000000	         -0.00000654	          0.00000000	          0.00000000	          1.89593426	          0.00000000	
          2.00500000	         -0.00024715	         -0.00186063	          0.00001403	          0.00001065	          0.00000000	          0.00000219	         -0.24350855	        621.33670718	        -34.39756817	          0.21256702	          0.00000000	          0.06964981	          0.00000000	         -0.00000753	          0.00000000	          0.00000000	          1.86271722	          0.00000000	
          2.01000000	         -0.00005438	         -0.00103474	         -0.00000080	          0.00000838	          0.00000000	          0.00000176	          1.20141971	        629.46048700	        -35.31381157	          0.21472464	          0.00000000	          0.06951649	          0.00000000	         -0.00000757	          0.00000000	          0.00000000	          1.82257225	          0.00000000	
          2.01500000	          0.00007354	         -0.00042329	         -0.00001025	          0.00000627	          0.00000000	          0.00000134	          2.86414440	        638.00781689	        -36.35776279	          0.21685470	          0.00000000	          0.06936324	          0.00000000	         -0.00000700	          0.00000000	          0.00000000	          1.77551724	          0.00000000	
